<?xml version="1.0" standalone="no"?><!DOCTYPE svg PUBLIC "-//W3C//DTD SVG 1.1//EN" "http://www.w3.org/Graphics/SVG/1.1/DTD/svg11.dtd"><svg t="1752645902199" class="icon" viewBox="0 0 1024 1024" version="1.1" xmlns="http://www.w3.org/2000/svg" p-id="33103" xmlns:xlink="http://www.w3.org/1999/xlink" width="200" height="200"><path d="M557.376 96.448a32 32 0 0 1 26.24 36.8c-7.808 46.976-31.168 75.008-67.456 91.712l-6.976 3.008-21.504 8-2.944 0.896H483.84c0.96 3.328 2.688 7.68 5.312 12.928l6.4 11.968 8.768 14.72 11.392 17.536a32 32 0 0 1-52.992 35.84c-57.216-84.608-57.728-127.872-2.56-151.68l19.136-7.232 10.112-4.16c17.92-8.192 26.944-19.072 31.104-44.032A32 32 0 0 1 551.68 96l5.76 0.448z" fill="#ffffff" p-id="33104"></path><path d="M823.936 158.976c-37.12 4.288-70.72 44.8-110.08 122.88l-10.24 20.864-6.144-1.536c-53.12-12.992-118.208-19.392-195.456-19.392l-25.28 0.256c-66.24 1.28-122.944 7.552-170.176 19.136l-5.12 1.28-1.92-4.48C258.56 204.48 223.104 158.528 180.352 158.528c-43.264 0-66.752 42.944-82.688 131.392l-4.48 27.904-4.224 30.592a1747.2 1747.2 0 0 0-1.92 16.384l-49.728 468.672-0.192 5.12c0 42.88 34.688 77.568 77.504 77.568h777.6l4.288-0.256a77.632 77.632 0 0 0 70.784-84.48l-43.328-465.92c-1.28-11.2-2.56-21.888-3.968-32.192l-4.416-29.376c-16-98.048-39.616-145.408-85.056-145.408l-6.592 0.384z m6.592 63.616l1.536 3.84 4.992 16.896 3.456 13.44 3.84 16.64 4.032 19.968 2.112 11.136 4.096 24.704 3.904 27.904 1.856 15.104 43.2 465.28a13.504 13.504 0 0 1-12.16 14.656l-1.408 0.064H114.624a13.504 13.504 0 0 1-12.992-9.92L101.12 838.016l49.472-466.112 3.776-29.312 4.032-26.24 4.096-23.04 6.016-28.672 3.648-15.04 4.544-16.384 3.648-10.624c2.944 0 9.28 6.72 18.048 19.968l8.064 12.992c2.88 4.864 5.888 10.24 9.088 16.128l9.984 19.392 10.688 22.528c1.92 4.032 3.712 8.128 5.632 12.416l11.52 27.264 11.392 27.712L293.12 371.52c51.072-17.024 120.832-25.728 208.896-25.728 88.128 0 157.824 8.704 208.896 25.728l27.328 9.088 19.2-41.856 13.888-28.544a480 480 0 0 1 37.12-63.168c4.864-6.528 9.088-11.648 12.48-15.424l5.76-5.888 3.84-3.136z" fill="#ffffff" p-id="33105"></path><path d="M556.736 608.064a130.048 102.656 0 1 0 260.096 0 130.048 102.656 0 1 0-260.096 0Z" fill="#ffffff" p-id="33106"></path><path d="M187.2 608.064a130.048 102.656 0 1 0 260.096 0 130.048 102.656 0 1 0-260.096 0Z" fill="#ffffff" p-id="33107"></path><path d="M317.248 532.8a75.264 75.264 0 1 1 0 150.528 75.264 75.264 0 0 1 0-150.528z m0 13.696c-7.552 0-13.696 27.52-13.696 61.568 0 33.984 6.144 61.568 13.696 61.568s13.696-27.52 13.696-61.568-6.144-61.568-13.696-61.568zM686.784 532.8a75.264 75.264 0 1 1 0 150.528 75.264 75.264 0 0 1 0-150.528z m0 13.696c-7.552 0-13.632 27.52-13.632 61.568 0 33.984 6.08 61.568 13.632 61.568 7.616 0 13.696-27.52 13.696-61.568s-6.08-61.568-13.696-61.568z" fill="#ffffff" p-id="33108"></path></svg>