<?xml version="1.0" standalone="no"?><!DOCTYPE svg PUBLIC "-//W3C//DTD SVG 1.1//EN" "http://www.w3.org/Graphics/SVG/1.1/DTD/svg11.dtd"><svg t="1752483149633" class="icon" viewBox="0 0 3584 1024" version="1.1" xmlns="http://www.w3.org/2000/svg" p-id="14787" xmlns:xlink="http://www.w3.org/1999/xlink" width="700" height="200"><path d="M821.971862 372.70069l-221.395862-127.823449a17.902345 17.902345 0 0 0-17.92 0l-221.395862 127.823449a17.92 17.92 0 0 0-8.968828 15.501241v255.646897c0 6.391172 3.425103 12.305655 8.968828 15.518896l221.395862 127.823448c5.543724 3.195586 12.358621 3.195586 17.92 0l221.395862-127.823448c5.543724-3.195586 8.951172-9.110069 8.951172-15.518896v-255.646897c0-6.408828-3.407448-12.305655-8.951172-15.518897z" fill="#8080F2" p-id="14788"></path><path d="M15.960276 489.136552L280.505379 28.919172C290.109793 12.270345 307.870897 0 327.079724 0h529.072552c19.226483 0 36.969931 12.270345 46.592 28.919172l264.527448 459.211035a54.731034 54.731034 0 0 1 0 54.272L902.744276 998.859034c-9.622069 16.631172-27.365517 25.140966-46.592 25.140966H327.079724c-19.208828 0-36.969931-8.244966-46.574345-24.893793L15.977931 541.907862a51.906207 51.906207 0 0 1 0-52.788965z m219.047724 221.289931c0 6.779586 4.078345 13.029517 9.939862 16.41931L581.914483 921.246897c5.861517 3.389793 13.206069 3.389793 19.067586 0l337.213793-194.401104c5.861517-3.389793 9.957517-9.639724 9.957517-16.41931V321.606621c0-6.761931-4.043034-13.029517-9.886896-16.419311L601.282207 110.821517a19.138207 19.138207 0 0 0-19.049931 0l-337.249104 194.383449c-5.861517 3.389793-9.992828 9.657379-9.992827 16.41931V710.444138z" fill="#4B32C3" p-id="14789"></path><path d="M1530.650483 771.707586V252.292414h330.946207v80.878345h-241.169656v136.527448h220.389518v80.896H1620.44469v140.235034h244.859586v80.878345H1530.650483zM2099.535448 782.106483c-39.565241 0-74.699034-6.938483-105.366069-20.780138-30.17269-14.353655-53.918897-34.886621-71.23862-61.598897-17.302069-26.712276-25.970759-59.35669-25.970759-97.933241v-19.297104h88.311172v19.297104c0 34.127448 10.381241 59.603862 31.16138 76.411586 20.780138 16.825379 48.481103 25.246897 83.102896 25.246897 35.133793 0 61.598897-7.185655 79.395311-21.539311 17.814069-14.336 26.712276-32.891586 26.712275-55.649103 0-15.32469-4.201931-27.700966-12.605793-37.093517-8.403862-9.886897-20.780138-17.814069-37.111172-23.746207-15.819034-5.932138-35.116138-11.617103-57.873655-17.072552l-22.263173-4.449103c-34.127448-7.909517-63.805793-17.796414-89.035034-29.66069-24.734897-12.376276-43.784828-28.212966-57.132138-47.492414-13.364966-19.314759-20.038621-44.544-20.038621-75.705379 0-31.161379 7.415172-57.873655 22.263173-80.136828 14.830345-22.245517 35.857655-39.318069 63.064276-51.2 27.206621-11.864276 59.109517-17.814069 95.726344-17.814069 36.599172 0 69.261241 6.17931 97.950897 18.555586 28.689655 12.358621 51.2 30.914207 67.513379 55.649104 16.825379 24.734897 25.229241 55.666759 25.229242 92.760276v24.487724h-88.293518v-24.487724c0-21.274483-4.201931-38.347034-12.623448-51.2-8.403862-12.870621-20.268138-22.245517-35.610483-28.195311-15.342345-5.932138-33.385931-8.898207-54.166069-8.898206-30.667034 0-53.918897 5.932138-69.755586 17.796413-15.819034 11.881931-23.746207 28.689655-23.746207 50.458483 0 13.85931 3.460414 25.723586 10.398897 35.628138 7.415172 9.392552 18.043586 17.302069 31.902896 23.746207 14.336 5.932138 32.150069 11.122759 53.424552 15.571862l22.263173 5.190621c35.610483 7.927172 66.771862 18.061241 93.501793 30.419862 26.712276 11.881931 47.474759 27.718621 62.322758 47.492414 15.342345 19.791448 23.00469 45.515034 23.00469 77.170758 0 31.179034-8.15669 58.615172-24.487724 82.379035-15.83669 23.746207-38.347034 42.284138-67.531035 55.649103-28.689655 13.34731-62.817103 20.038621-102.4 20.038621zM2349.903448 771.707586V252.292414h89.776552v438.536827h243.394207v80.878345H2349.903448zM2733.497379 771.707586V405.150897h85.345104V771.707586h-85.345104z m42.301793-413.307586c-15.342345 0-28.689655-4.943448-40.059586-14.830345-10.893241-10.398897-16.331034-24.011034-16.331034-40.818758 0-16.825379 5.437793-30.190345 16.331034-40.077242a57.467586 57.467586 0 0 1 40.059586-15.571862c16.331034 0 29.678345 5.190621 40.077242 15.571862 10.875586 9.886897 16.313379 23.251862 16.313379 40.077242 0 16.825379-5.437793 30.419862-16.313379 40.801103-10.398897 9.886897-23.746207 14.848-40.077242 14.848zM2904.717241 771.707586V405.150897h83.862069v51.2h12.605793c6.426483-13.85931 18.061241-26.959448 34.868966-39.335725 16.825379-12.358621 42.301793-18.537931 76.429241-18.537931 28.212966 0 53.177379 6.426483 74.946207 19.279449a131.266207 131.266207 0 0 1 50.458483 53.424551c12.376276 22.775172 18.555586 49.716966 18.555586 80.896v219.630345h-85.327448V558.750897c0-29.678345-7.432828-51.694345-22.263172-66.030345-14.353655-14.848-34.886621-22.280828-61.598897-22.280828-30.17269 0-53.918897 10.151724-71.220966 30.437517-17.319724 19.773793-25.970759 48.233931-25.970758 85.327449V771.707586h-85.345104zM3468.340966 771.707586c-23.746207 0-42.796138-6.920828-57.132138-20.780138-13.85931-14.336-20.780138-33.633103-20.780138-57.873655V475.648h-95.726345v-70.497103h95.726345v-117.989518h85.327448v117.989518h105.366069v70.497103h-105.366069v203.316966c0 14.830345 6.938483 22.245517 20.780138 22.245517h73.463172v70.497103h-101.658482z" fill="#101828" p-id="14790"></path></svg>