<?xml version="1.0" standalone="no"?><!DOCTYPE svg PUBLIC "-//W3C//DTD SVG 1.1//EN" "http://www.w3.org/Graphics/SVG/1.1/DTD/svg11.dtd"><svg t="1752645760256" class="icon" viewBox="0 0 1024 1024" version="1.1" xmlns="http://www.w3.org/2000/svg" p-id="31425" xmlns:xlink="http://www.w3.org/1999/xlink" width="200" height="200"><path d="M895.240258 397.708387c0.792774-1.057032 1.519484-2.246194 2.114065-3.567484 0.264258-0.594581 0.528516-1.189161 0.726709-1.783742 0.72671 0.462452 1.519484 0.924903 2.378323 1.321291 8.720516 3.963871 18.564129 0.990968 21.999484-6.540387s-0.924903-16.846452-9.64542-20.810323c-0.462452-0.198194-0.990968-0.396387-1.453419-0.594581 0.792774-1.057032 1.519484-2.246194 2.114065-3.567484 3.963871-8.720516 0.990968-18.564129-6.540388-21.999483s-16.846452 0.924903-20.810322 9.645419c-0.462452 1.123097-0.858839 2.180129-1.189161 3.303226-1.255226-0.990968-2.642581-1.915871-4.228129-2.576516-8.720516-3.963871-18.564129-0.990968-21.999484 6.540387-0.330323 0.792774-0.528516 1.585548-0.72671 2.378322 16.714323 9.51329 29.200516 22.528 37.326452 38.251355h-0.066065z m-13.01471-29.662968c2.114065-4.624516 7.597419-6.738581 12.221936-4.624516 4.624516 2.114065 6.738581 7.597419 4.624516 12.221936-2.114065 4.624516-7.597419 6.738581-12.221935 4.624516-4.624516-2.114065-6.738581-7.597419-4.624517-12.221936z" fill="#FFFFFF" p-id="31426"></path><path d="M886.850065 380.267355c4.624516 2.114065 10.107871 0 12.221935-4.624516 2.114065-4.624516 0-10.107871-4.624516-12.221936-4.624516-2.114065-10.107871 0-12.221936 4.624516-2.114065 4.624516 0 10.107871 4.624517 12.221936z" fill="#FFF9BD" p-id="31427"></path><path d="M939.041032 813.254194c-3.567484-7.993806-13.939613-11.098839-23.056516-7.002839-1.123097 0.528516-2.246194 1.123097-3.237161 1.783742-0.264258-1.651613-0.792774-3.36929-1.519484-5.020903-4.162065-9.182968-13.939613-13.807484-21.867355-10.24-7.927742 3.567484-11.032774 13.939613-6.87071 23.12258 0.528516 1.123097 1.123097 2.180129 1.783742 3.171097-1.057032 0.264258-2.114065 0.660645-3.171096 1.123097-9.182968 4.096-13.675355 13.939613-10.107871 21.933419 3.567484 7.993806 13.939613 11.098839 23.056516 7.002839 0.594581-0.264258 1.255226-0.594581 1.783742-0.924903 0.264258 0.924903 0.594581 1.783742 0.990967 2.708645 4.162065 9.182968 13.939613 13.807484 21.867355 10.24 7.927742-3.567484 11.032774-13.939613 6.87071-23.122581-0.264258-0.528516-0.462452-0.990968-0.72671-1.519484 1.387355-0.330323 2.77471-0.72671 4.096-1.32129 9.182968-4.096 13.675355-13.939613 10.107871-21.933419z m-30.72 22.528c-4.888774 2.180129-10.636387 0-12.816516-4.888775-2.180129-4.888774 0-10.702452 4.82271-12.88258 4.888774-2.180129 10.636387 0 12.816516 4.888774 2.180129 4.888774 0 10.702452-4.82271 12.882581z" fill="#FFFFFF" p-id="31428"></path><path d="M900.327226 818.010839c-4.888774 2.180129-7.068903 7.927742-4.82271 12.88258 2.246194 4.954839 7.927742 7.134968 12.816516 4.888775 4.888774-2.180129 7.068903-7.927742 4.82271-12.882581-2.246194-4.954839-7.927742-7.134968-12.816516-4.888774z" fill="#FFF9BD" p-id="31429"></path><path d="M738.733419 547.344516c-63.025548-1.783742-138.206968-37.987097-142.435096-40.101161-5.020903-2.444387-14.534194-7.267097-27.813162-12.948645-14.005677-6.011871-24.972387-9.843613-33.164387-12.684387-9.51329-3.303226-19.15871-6.540387-28.539871-9.64542a3.171097 3.171097 0 0 1-0.330322 1.123097 5.093574 5.093574 0 0 1-6.87071 2.180129c-7.729548-4.029935-15.987613-7.201032-24.443871-9.315097-8.192-2.048-16.648258-3.171097-25.104516-3.303226-3.36929 2.312258-7.795613 4.029935-11.297032 5.153033-3.831742 5.747613-7.663484 12.155871-11.363097 19.290838a219.730581 219.730581 0 0 0-15.459097 37.788904q-13.477161 42.017032-12.684387 77.890064c0 2.708645 0.198194 8.192 0.264258 12.023742 0.528516 0.462452 1.057032 0.990968 1.585548 1.453419 6.738581 6.077935 15.326968 13.675355 22.726194 18.101678 13.741419 8.192 27.879226 13.741419 36.467613 16.119742 4.756645 1.32129 8.522323 5.153032 11.230968 11.363097 11.230968 25.765161 61.902452 58.599226 93.48129 74.586838 14.534194 5.41729 29.530839 9.843613 44.659613 13.212904 12.882581 2.840774 26.029419 4.888774 39.110193 6.210064 2.840774 0.264258 4.888774 2.77471 4.558452 5.549419-0.066065 0.990968-0.528516 1.783742-1.057032 2.510452 13.01471 6.936774 32.900129 15.591226 58.401032 19.422968 14.798452 2.246194 27.94529 2.312258 38.845935 1.585548l2.510452-2.708645 0.792774-0.132129c0.792774-0.396387 1.519484-0.72671 2.312258-0.924903 0.528516-0.132129 1.057032-0.396387 1.717678-0.72671 94.274065-48.227097 156.771097-183.791484 136.158968-292.797935-72.340645 57.013677-130.014968 60.581161-154.32671 59.854451l0.066064-0.132129z m-62.166709 119.708903c-4.624516 21.404903-23.651097 36.071226-44.791742 36.071226-3.171097 0-6.408258-0.330323-9.711484-1.057032-24.642065-5.351226-40.365419-29.795097-35.080258-54.437161a45.538271 45.538271 0 0 1 19.951484-28.804129c10.306065-6.606452 22.528-8.852645 34.485677-6.276129 11.957677 2.576516 22.197677 9.711484 28.804129 19.951483 6.606452 10.306065 8.852645 22.528 6.276129 34.485678l0.066065 0.066064z" fill="#FFFFFF" p-id="31430"></path><path d="M843.776 369.763097c-2.444387 2.444387-5.285161 5.153032-8.390194 7.927742-1.123097 0.990968-2.312258 1.981935-3.501419 3.038967l-1.255226 1.057033c-0.594581 0.528516-1.189161 0.990968-1.849806 1.519484-1.123097 0.924903-2.312258 1.849806-3.567484 2.774709l-0.462452 0.330323c-3.303226 2.510452-6.804645 5.020903-10.636387 7.46529h-0.132129a148.222348 148.222348 0 0 1-16.384 9.447226c-0.660645 0.330323-1.32129 0.660645-2.048 0.990968-7.201032 3.435355-15.06271 6.540387-23.585032 9.050838-2.972903 0.858839-6.011871 1.651613-9.182968 2.378323-15.326968 3.501419-29.464774 4.228129-41.884903 3.567484a149.834323 149.834323 0 0 1-22.395871-2.972903c-3.699613-0.792774-7.134968-1.651613-10.24-2.510452-5.153032-1.453419-9.447226-2.972903-12.684387-4.228129-34.948129-8.720516-61.968516-6.077935-80.334452-1.915871-31.050323 7.002839-50.010839 19.356903-80.400516 14.798452-1.057032-0.132129-2.114065-0.330323-3.105032-0.528516l-3.038968-0.594581-2.576516-0.594581c-3.171097-0.792774-6.144-1.717677-8.984774-2.774709-4.228129-1.519484-7.927742-3.237161-11.363097-5.020904-2.114065-1.057032-4.096-2.114065-5.879742-3.237161-0.132129 0.660645-0.264258 1.32129-0.528516 1.981936l-0.330323 0.858838-0.59458 0.72671q-10.504258 12.816516-15.260903 21.933419c-2.906839 5.549419-5.219097 11.495226-7.201033 17.441033a120.878245 120.878245 0 0 1 48.293162 13.543225c2.114065 1.123097 3.038968 3.501419 2.510451 5.747613 9.381161 3.105032 19.026581 6.342194 28.539871 9.64542 8.192 2.840774 19.224774 6.672516 33.164387 12.684387 13.278968 5.681548 22.792258 10.504258 27.813162 12.948645 4.228129 2.048 79.409548 38.251355 142.435096 40.101161 24.311742 0.660645 82.052129-2.906839 154.32671-59.854451-0.330323-1.915871-0.660645-3.831742-1.057032-5.681549l-0.264258-1.123097 0.264258-1.123096c12.089806-50.803613-2.972903-91.829677-41.422452-112.441807l-0.660645-0.396387q-0.528516-0.330323-0.792774-0.462452l-1.321291-0.660645c-1.123097 1.255226-2.378323 2.510452-3.765677 3.897807l-0.264258 0.264258z" fill="#3E3E3E" p-id="31431"></path><path d="M323.319742 409.203613c0.924903 0.198194 1.915871 0.132129 2.840774-0.132129 3.237161-0.924903 5.153032-4.294194 4.228129-7.531355l-9.249032-32.834064a6.117574 6.117574 0 0 0-11.759484 3.303225l9.249032 32.834065c0.660645 2.312258 2.510452 3.897806 4.690581 4.360258zM301.320258 419.179355l-28.870193-18.167742a6.170426 6.170426 0 0 0-8.456259 1.915871 6.170426 6.170426 0 0 0 1.915871 8.456258l28.870194 18.167742a6.203458 6.203458 0 0 0 8.456258-1.915871 6.170426 6.170426 0 0 0-1.915871-8.456258zM365.072516 400.945548c0.858839 0.396387 1.783742 0.660645 2.77471 0.660646 3.36929 0 6.144-2.77471 6.144-6.144V361.372903a6.276129 6.276129 0 0 0-6.210065-6.144c-3.36929 0-6.144 2.77471-6.144 6.144v34.089291c0.066065 2.378323 1.453419 4.426323 3.435355 5.483354z" fill="#000000" p-id="31432"></path><path d="M713.298581 174.740645c30.125419 9.381161 55.692387 25.89729 74.785032 48.55742 14.269935-15.65729 9.711484-38.779871 9.116903-41.422452-5.153032-23.25471-25.170581-33.49471-27.482839-34.551742-2.180129-1.057032-21.603097-9.843613-41.686709-0.858839-15.591226 7.002839-21.20671 16.648258-23.188645 23.518968-0.198194 0.72671-0.396387 1.453419-0.528517 2.246194 2.576516 0.660645 5.086968 1.453419 7.663484 2.246193 0.396387 0.132129 0.858839 0.264258 1.255226 0.396387l0.066065-0.132129zM490.330839 244.43871a37.260387 37.260387 0 0 0-17.242839-4.096c-13.807484 0-25.434839 6.738581-27.218581 7.795613-20.347871 12.354065-23.518968 34.683871-23.84929 37.194322-0.264258 2.378323-2.312258 23.651097 12.684387 39.704774 9.777548 10.504258 19.026581 13.675355 25.963355 14.269936 0.462452-26.359742 6.474323-61.836387 29.729032-94.736516h-0.132129l0.066065-0.132129z" fill="#3E3E3E" p-id="31433"></path><path d="M813.980903 311.097806c-3.765677-8.125935 2.576516-19.356903 14.468129-26.624-5.351226-5.945806-12.354065-11.957677-21.07458-15.326967-0.396387-0.132129-1.32129-0.528516-3.50142-2.510452-1.981935-1.849806-3.633548-4.029935-4.822709-6.540387-4.558452-9.51329-10.107871-18.365935-16.384-26.491871-20.612129-26.425806-50.341161-44.725677-85.949936-52.917677-38.912-8.91871-82.580645-5.219097-119.841032 10.173935-33.098323 13.741419-58.995613 33.098323-76.833032 57.476129-25.104516 34.287484-29.729032 72.208516-29.200517 97.907613 0.528516 24.443871 5.549419 42.545548 8.522323 51.2 1.32129 3.897806 1.453419 8.125935 0.462452 12.089806 1.783742 1.057032 3.765677 2.114065 5.879742 3.237162 3.435355 1.783742 7.134968 3.501419 11.363096 5.020903 2.840774 0.990968 5.813677 1.981935 8.984775 2.77471l2.576516 0.59458c0.990968 0.198194 1.981935 0.396387 3.038967 0.594581 1.057032 0.198194 2.048 0.396387 3.105033 0.528516 30.389677 4.558452 49.416258-7.795613 80.400516-14.798452 18.365935-4.162065 45.320258-6.804645 80.334451 1.915871 3.237161 1.255226 7.531355 2.77471 12.684388 4.228129 3.105032 0.858839 6.540387 1.717677 10.24 2.510452 6.606452 1.387355 14.137806 2.510452 22.39587 2.972903 12.420129 0.72671 26.557935 0 41.884904-3.567484 3.105032-0.72671 6.210065-1.519484 9.182967-2.378322 8.456258-2.510452 16.317935-5.615484 23.585033-9.050839 0.660645-0.330323 1.387355-0.660645 2.048-0.990968 2.972903-1.453419 5.813677-2.972903 8.522322-4.558451 2.708645-1.585548 5.351226-3.171097 7.861678-4.82271h0.132129c3.765677-2.510452 7.333161-5.020903 10.636387-7.531355l0.462451-0.330322c1.255226-0.924903 2.444387-1.849806 3.567484-2.77471 0.594581-0.528516 1.255226-0.990968 1.849807-1.519484 0.462452-0.330323 0.858839-0.72671 1.255226-1.057032 1.189161-0.990968 2.378323-2.048 3.501419-3.038968 3.105032-2.77471 5.945806-5.41729 8.390193-7.927742l0.264259-0.264258c1.387355-1.387355 2.576516-2.708645 3.765677-3.897806l-1.651613-0.858839 0.264258-3.36929c0.198194-2.77471 0.330323-5.681548 0.462452-8.456258 0.462452-13.01471 0.858839-24.443871-1.717678-36.203355-13.741419 5.020903-27.218581 2.906839-31.116387-5.54942v0.132129z" fill="#FFFFFF" p-id="31434"></path><path d="M411.912258 524.816516c3.36929-11.032774 8.258065-23.981419 15.459097-37.788903 3.699613-7.134968 7.531355-13.477161 11.363097-19.290839-2.180129 0.660645-3.963871 1.123097-4.756646 1.255226a90.970839 90.970839 0 0 0-17.308903 4.162065l-3.963871 1.387354-2.114064-3.567484c-12.155871-20.413935-23.188645-24.047484-28.738065-24.44387-10.702452-0.72671-23.386839 7.927742-33.957161 23.188645-10.107871 16.648258-16.978581 39.902968-17.374968 59.392-0.396387 18.498065 2.906839 33.098323 9.777549 43.338322 2.312258 3.237161 4.954839 6.144 7.927742 8.588387 2.510452 1.849806 4.294194 2.180129 7.201032 2.77471 4.228129 0.792774 9.51329 1.783742 17.639226 7.531355 5.020903 3.567484 11.56129 9.645419 19.092645 16.648258 2.378323 2.246194 4.888774 4.492387 7.333161 6.804645-0.066065-3.831742-0.198194-9.381161-0.264258-12.023742q-0.792774-35.873032 12.684387-77.890064v-0.066065zM709.268645 783.591226c-24.972387-3.765677-44.527484-12.089806-57.542193-19.026581-0.990968 0.924903-2.378323 1.387355-3.831742 1.255226-13.146839-1.255226-26.293677-3.36929-39.176258-6.144l-1.189162-0.264258c-9.315097-2.048-18.630194-4.558452-27.813161-7.399226 0.858839 3.36929 0.990968 6.936774 0.132129 10.438194-0.594581 2.444387-1.585548 4.690581-2.906839 6.73858a63.421935 63.421935 0 0 0-7.068903 14.600258c-2.312258 6.87071-6.738581 24.774194 1.123097 42.809807 12.023742 27.416774 43.536516 34.683871 56.61729 36.533677 0.462452 0.066065 1.057032 0.132129 1.783742 0.264258 28.407742 3.435355 51.992774-10.173935 60.84542-16.185806 3.501419-2.378323 17.837419-17.70529 41.488516-43.074065l17.70529-18.960516c-11.164903 0.792774-24.708129 0.858839-40.101161-1.453419l-0.066065-0.132129zM639.966968 619.619097a38.852542 38.852542 0 0 0-29.134452 5.285161 38.482581 38.482581 0 0 0-16.846451 24.311742 38.18529 38.18529 0 0 0 5.285161 29.068387 38.482581 38.482581 0 0 0 24.311742 16.846452c20.810323 4.492387 41.422452-8.786581 45.914838-29.596904a38.18529 38.18529 0 0 0-5.285161-29.068387 38.482581 38.482581 0 0 0-24.311742-16.846451h0.066065z" fill="#3E3E3E" p-id="31435"></path><path d="M641.486452 612.616258a45.35329 45.35329 0 0 0-34.485678 6.276129c-10.306065 6.606452-17.374968 16.846452-19.951484 28.804129-5.351226 24.642065 10.372129 49.085935 35.080258 54.437161 3.237161 0.72671 6.474323 1.057032 9.711484 1.057033 21.074581 0 40.101161-14.666323 44.791742-36.071226 2.576516-11.957677 0.396387-24.179613-6.276129-34.485678-6.606452-10.306065-16.846452-17.374968-28.804129-19.951483l-0.066064-0.066065z m28.077419 52.917677a38.680774 38.680774 0 0 1-45.914839 29.596904 38.482581 38.482581 0 0 1-24.311742-16.846452 38.231535 38.231535 0 0 1-5.285161-29.068387 38.482581 38.482581 0 0 1 16.846452-24.311742c6.342194-4.096 13.543226-6.144 20.876387-6.144a38.482581 38.482581 0 0 1 32.569806 17.70529c5.615484 8.654452 7.46529 19.026581 5.285161 29.068387h-0.066064z" fill="#000000" p-id="31436"></path><path d="M902.243097 480.751484c7.399226-31.909161 4.756645-60.316903-7.002839-82.977032-8.125935-15.723355-20.678194-28.738065-37.326452-38.251355-0.396387-0.198194-0.72671-0.462452-1.123096-0.660645 0.132129-1.849806 0.198194-3.699613 0.264258-5.54942 0.462452-13.939613 0.924903-27.218581-2.576516-41.158193-1.717677 1.123097-3.633548 2.180129-5.615484 3.105032-1.255226 0.594581-2.510452 1.057032-3.831742 1.519484 2.576516 11.759484 2.180129 23.188645 1.717677 36.203355-0.132129 2.840774-0.264258 5.681548-0.462451 8.456258l-0.264258 3.36929 1.651612 0.858839 1.321291 0.660645q0.528516 0.264258 0.792774 0.462452l0.660645 0.396387c38.449548 20.612129 53.578323 61.638194 41.422452 112.441806l-0.264258 1.123097 0.264258 1.123097c0.396387 1.849806 0.72671 3.765677 1.057032 5.681548 20.612129 109.072516-41.950968 244.636903-136.158968 292.797936-0.594581 0.330323-1.189161 0.528516-1.717677 0.726709-0.792774 0.198194-1.519484 0.528516-2.312258 0.924903l-0.792774 0.132129-2.510452 2.708646-0.264258 0.264258-17.70529 18.960516c-23.651097 25.368774-37.921032 40.695742-41.488517 43.074064-8.786581 6.011871-32.371613 19.621161-60.845419 16.185807-0.72671-0.066065-1.32129-0.198194-1.783742-0.264258-13.01471-1.849806-44.593548-9.116903-56.61729-36.533678-7.861677-18.035613-3.435355-35.939097-1.123097-42.809806a64.743226 64.743226 0 0 1 7.068903-14.600258c1.32129-2.048 2.312258-4.360258 2.906839-6.738581 0.858839-3.501419 0.72671-7.068903-0.132129-10.438193 9.182968 2.840774 18.498065 5.351226 27.813161 7.399225l1.189162 0.264258c12.882581 2.77471 26.029419 4.82271 39.176258 6.144 1.453419 0.132129 2.840774-0.396387 3.831742-1.255225 0.264258-0.198194 0.462452-0.528516 0.660645-0.792775 0.528516-0.72671 0.990968-1.519484 1.057032-2.510451 0.264258-2.77471-1.783742-5.285161-4.558452-5.54942a325.499871 325.499871 0 0 1-39.110193-6.210064c-15.128774-3.303226-30.125419-7.795613-44.659613-13.212903-31.578839-15.987613-82.316387-48.821677-93.48129-74.586839-2.708645-6.210065-6.474323-10.041806-11.230968-11.363097-8.588387-2.378323-22.726194-7.927742-36.467613-16.119742-7.399226-4.426323-16.053677-11.957677-22.726194-18.101677-0.528516-0.462452-1.057032-0.990968-1.585548-1.453419-2.510452-2.246194-4.954839-4.558452-7.333161-6.804646-7.531355-7.002839-14.071742-13.080774-19.092645-16.648258-8.125935-5.747613-13.411097-6.738581-17.639226-7.531355-2.906839-0.528516-4.756645-0.924903-7.201033-2.774709-2.972903-2.444387-5.615484-5.285161-7.927741-8.588387-6.87071-10.24-10.173935-24.774194-9.777549-43.338323 0.396387-19.489032 7.201032-42.743742 17.374968-59.392 10.570323-15.194839 23.25471-23.84929 33.957161-23.188645 5.549419 0.396387 16.582194 4.029935 28.738065 24.443871l2.114064 3.567484 3.963871-1.387355c3.303226-1.123097 6.672516-2.114065 10.041807-2.840774 2.378323-0.528516 4.82271-0.924903 7.267096-1.321291 0.72671-0.132129 2.576516-0.528516 4.756646-1.255225 3.501419-1.057032 7.927742-2.840774 11.297032-5.153033 8.456258 0.132129 16.912516 1.255226 25.104516 3.303226 8.456258 2.114065 16.714323 5.285161 24.443871 9.315097 0.396387 0.198194 0.858839 0.396387 1.255226 0.462452 2.180129 0.462452 4.492387-0.528516 5.615484-2.642581 0.198194-0.330323 0.198194-0.72671 0.330322-1.123097 0.594581-2.246194-0.330323-4.624516-2.510451-5.747613-8.456258-4.426323-17.441032-7.795613-26.690065-10.173935-7.068903-1.783742-14.336-2.906839-21.603097-3.369291 1.981935-6.011871 4.294194-11.891613 7.201033-17.441032 4.756645-9.116903 15.194839-21.80129 15.260903-21.933419l0.59458-0.72671 0.330323-0.858839c0.198194-0.660645 0.330323-1.32129 0.528516-1.981935 0.990968-4.029935 0.858839-8.192-0.462451-12.089806-2.972903-8.654452-7.993806-26.756129-8.522323-51.2-0.528516-25.699097 4.096-63.620129 29.200516-97.907613 17.837419-24.443871 43.73471-43.800774 76.833032-57.476129 37.194323-15.459097 80.862968-19.15871 119.841033-10.173936 35.608774 8.192 65.337806 26.491871 85.949935 52.917678a145.738323 145.738323 0 0 1 16.384 26.49187c1.189161 2.444387 2.840774 4.690581 4.82271 6.540388 2.114065 1.981935 3.038968 2.312258 3.501419 2.510451 8.654452 3.36929 15.723355 9.381161 21.074581 15.326968 1.585548-0.924903 3.171097-1.849806 4.888774-2.642581 1.585548-0.72671 3.105032-1.32129 4.690581-1.849806-6.276129-7.46529-15.06271-15.525161-26.425807-20.083613-0.198194-0.132129-0.462452-0.396387-0.792774-0.72671a12.023742 12.023742 0 0 1-2.576516-3.435355c-4.096-8.456258-8.91871-16.450065-14.269936-23.915354 19.290839-19.092645 14.402065-46.773677 13.212904-52.190968-6.144-28.011355-30.257548-40.299355-33.032259-41.554581-4.228129-2.048-26.557935-11.627355-50.275096-0.990968-19.224774 8.588387-26.293677 21.074581-28.804129 29.993291-0.264258 0.924903-0.462452 1.915871-0.660645 2.906838-39.770839-8.125935-83.769806-4.096-121.426581 11.561291-32.107355 13.278968-57.674323 31.777032-76.370581 54.833548-0.528516-0.330323-1.057032-0.72671-1.651613-0.990968-24.509935-12.684387-49.614452 1.123097-54.437161 4.029936-24.509935 14.864516-28.341677 41.68671-28.672 44.659613-0.528516 4.690581-2.378323 28.870194 15.326968 47.83071 12.354065 13.212903 24.443871 16.978581 33.560774 17.507096 0.858839 24.311742 5.879742 42.611613 8.91871 51.398194 0.72671 2.114065 0.792774 4.492387 0.198193 6.672516-2.444387 3.038968-11.230968 14.137806-15.855484 22.924387-3.897806 7.46529-7.068903 15.326968-9.381161 23.452903-2.180129 1.717677-9.645419 4.624516-12.155871 4.954839-2.77471 0.396387-5.483355 0.858839-8.125935 1.453419-2.444387 0.528516-4.888774 1.189161-7.267097 1.915871-13.080774-20.281806-25.963355-25.368774-34.683871-25.89729-14.534194-0.990968-30.257548 9.116903-43.140129 27.681032l-0.132129 0.264258c-11.032774 18.035613-18.498065 43.404387-18.960516 64.611097-0.462452 20.678194 3.435355 37.260387 11.56129 49.284129 2.840774 4.162065 6.210065 7.729548 9.909677 10.768516l0.132129 0.132129c4.426323 3.36929 8.192 4.096 11.561291 4.690581 3.633548 0.660645 7.333161 1.387355 13.60929 5.813677 4.492387 3.171097 11.032774 9.315097 18.035613 15.78942 2.906839 2.708645 5.945806 5.549419 9.050839 8.390193 7.068903 6.408258 16.185806 14.402065 24.377806 19.290839 14.600258 8.720516 29.729032 14.600258 38.978065 17.176774 1.585548 0.462452 3.237161 2.444387 4.624516 5.54942 13.212903 30.323613 67.650065 64.082581 97.775484 79.343483 0.198194 0.132129 0.330323 0.264258 0.528516 0.330323 0.132129 0 0.330323 0.132129 0.462451 0.132129 0.924903 0.462452 1.915871 0.990968 2.77471 1.387355 4.756645 2.312258 7.333161 7.795613 6.077936 12.948645-0.330323 1.255226-0.858839 2.444387-1.519484 3.567484-3.501419 5.285161-6.210065 10.96671-8.192 16.978581-2.642581 7.993806-7.861677 28.870194 1.453419 50.142967 14.071742 32.107355 49.812645 40.431484 64.545032 42.545549 0.528516 0.066065 1.189161 0.198194 1.981936 0.264258 3.501419 0.396387 6.87071 0.594581 10.24 0.59458 27.152516 0 48.887742-12.618323 57.608258-18.498064 4.492387-3.038968 15.789419-15.194839 43.206193-44.593549l18.828387-20.215741c1.189161-0.330323 2.378323-0.792774 3.567484-1.45342 99.294968-50.803613 164.764903-194.758194 140.651355-308.653419l0.330323 0.264258z m-197.268645-310.899613c1.981935-6.87071 7.531355-16.516129 23.188645-23.518968 20.017548-8.984774 39.506581-0.198194 41.686709 0.858839 2.246194 1.057032 22.329806 11.297032 27.482839 34.551742 0.594581 2.642581 5.153032 25.765161-9.116903 41.422451-19.092645-22.660129-44.725677-39.176258-74.785032-48.557419-0.396387-0.132129-0.858839-0.264258-1.255226-0.396387-2.510452-0.792774-5.020903-1.585548-7.663484-2.246194 0.132129-0.72671 0.330323-1.453419 0.528516-2.246193l-0.066064 0.132129zM460.733935 339.24129c-6.936774-0.528516-16.185806-3.765677-25.963354-14.269935-14.996645-16.053677-12.948645-37.326452-12.684387-39.704774 0.264258-2.510452 3.501419-24.774194 23.84929-37.194323 1.717677-1.057032 13.345032-7.795613 27.218581-7.795613 5.549419 0 11.429161 1.123097 17.242838 4.096h0.132129c-23.25471 32.966194-29.266581 68.442839-29.729032 94.802581l-0.066065 0.066064z" fill="#000000" p-id="31437"></path><path d="M212.133161 459.610839c-0.72671 1.189161-1.519484 2.246194-2.246193 3.303226-0.264258 0.396387-0.528516 0.72671-0.858839 1.123096-0.594581 0.858839-1.189161 1.585548-1.783742 2.312258-0.264258 0.264258-0.462452 0.594581-0.660645 0.858839-0.72671 0.858839-1.387355 1.651613-1.915871 2.378323-17.176774 20.48-46.707613 34.353548-73.463742 34.419613h-0.264258c-2.312258 0-4.492387-0.132129-6.672516-0.330323-0.660645 0-1.255226-0.198194-1.915871-0.264258-1.519484-0.198194-3.038968-0.396387-4.492387-0.660645-0.198194 0-0.462452 0-0.660645-0.132129a62.008155 62.008155 0 0 0 45.386322 8.192c21.537032-4.426323 41.026065-21.20671 47.434323-40.761807 1.255226-3.831742 2.114065-7.597419 2.64258-11.164903v0.132129q-0.330323 0.396387-0.462451 0.594581h-0.066065z" fill="#6B6B6B" p-id="31438"></path><path d="M221.712516 430.476387c-0.132129-1.057032-0.330323-2.444387-1.057032-3.699613-1.585548-14.468129-9.645419-24.708129-14.534194-29.530839-10.96671-11.032774-23.386839-12.816516-35.41058-14.600258h-0.066065c-10.504258-2.312258-21.338839-2.312258-32.107355 0.132129-9.975742 2.246194-19.290839 6.474323-27.681032 12.420129l-0.330323 0.264259c-21.074581 15.260903-32.966194 40.101161-31.050322 64.875354-0.792774 8.720516 6.672516 23.585032 11.891613 31.314581 13.01471 19.224774 35.476645 30.587871 58.797419 30.587871 4.82271 0 9.645419-0.462452 14.468129-1.453419 25.30271-5.219097 47.500387-24.377806 55.097807-47.566452 7.134968-21.669161 2.378323-40.827871 2.180129-41.620645 0-0.198194-0.132129-0.72671-0.198194-1.123097z m-123.408516 50.539355c-4.426323-5.219097-7.267097-12.288-8.588387-20.942452v-0.462451c-1.651613-21.20671 8.522323-42.545548 26.624-55.692387 7.46529-4.492387 15.723355-7.795613 24.509935-9.777549 0.924903-0.198194 1.981935-0.396387 3.237162-0.660645l1.123096-0.198193c0.72671-0.132129 1.453419-0.264258 2.180129-0.330323 0.660645-0.066065 1.32129-0.198194 1.981936-0.264258l1.783742-0.198194c0.594581 0 1.189161-0.132129 1.783742-0.132129h1.123097c0.924903-0.132129 1.849806-0.198194 2.774709-0.198193H162.849032c2.312258 0.132129 4.558452 0.330323 6.606452 0.660645 11.297032 1.651613 21.074581 3.038968 29.596903 11.693419 4.029935 4.096 10.96671 12.750452 11.825548 24.906323 1.057032 15.789419-9.050839 27.813161-13.873548 33.626839-15.326968 18.299871-41.68671 30.653935-65.668129 30.72h-0.198193c-10.041806 0-23.783226-2.246194-32.701936-12.750452h-0.132129z m111.715097-10.96671c-6.408258 19.555097-25.963355 36.335484-47.434323 40.761807-15.855484 3.303226-32.239484 0-45.386322-8.192 0.198194 0 0.462452 0 0.660645 0.132129 1.453419 0.264258 2.972903 0.528516 4.492387 0.660645 0.660645 0.066065 1.255226 0.198194 1.915871 0.264258 2.180129 0.198194 4.426323 0.330323 6.672516 0.330323h0.264258c26.822194 0 56.353032-13.873548 73.463742-34.419613 0.594581-0.660645 1.255226-1.453419 1.915871-2.378323l0.660645-0.858839c0.594581-0.72671 1.189161-1.519484 1.783742-2.312258 0.264258-0.396387 0.528516-0.72671 0.858839-1.123096 0.72671-1.057032 1.453419-2.114065 2.246193-3.303226l0.396387-0.594581v-0.132129c-0.462452 3.567484-1.255226 7.333161-2.510451 11.164903z" fill="#000000" p-id="31439"></path><path d="M131.138065 493.766194c23.981419 0 50.341161-12.420129 65.668129-30.72 4.82271-5.813677 14.930581-17.903484 13.873548-33.626839-0.858839-12.221935-7.729548-20.876387-11.825548-24.906323-8.588387-8.588387-18.299871-10.041806-29.596904-11.693419-2.114065-0.330323-4.360258-0.528516-6.606451-0.594581h-0.396387c-0.792774 0-1.585548-0.066065-2.510452-0.066064H156.638968c-0.858839 0-1.783742 0.066065-2.77471 0.132129h-1.123097c-0.594581 0.132129-1.189161 0.198194-1.783742 0.198193-0.594581 0-1.189161 0.132129-1.783742 0.198194-0.660645 0.066065-1.32129 0.132129-1.981935 0.264258-0.72671 0.132129-1.453419 0.198194-2.180129 0.330323-0.396387 0-0.72671 0.132129-1.123097 0.198193-1.255226 0.264258-2.312258 0.462452-3.237161 0.660645-8.786581 1.981935-17.044645 5.285161-24.509936 9.777549-18.101677 13.146839-28.275613 34.485677-26.624 55.692387v0.462451c1.32129 8.654452 4.228129 15.723355 8.588387 20.942452 8.852645 10.504258 22.660129 12.750452 32.701936 12.750452h0.330323z" fill="#AFAFAF" p-id="31440"></path><path d="M828.449032 284.473806c-11.891613 7.333161-18.299871 18.498065-14.468129 26.624 3.897806 8.456258 17.374968 10.570323 31.116387 5.54942 1.255226-0.462452 2.510452-0.924903 3.831742-1.519484 1.981935-0.924903 3.831742-1.981935 5.615484-3.105032 11.495226-7.333161 17.507097-18.233806 13.807484-26.227613-3.831742-8.258065-16.780387-10.504258-30.191484-5.879742-1.585548 0.528516-3.105032 1.123097-4.690581 1.849806-1.717677 0.792774-3.36929 1.717677-4.888774 2.642581l-0.132129 0.066064z" fill="#EE8390" p-id="31441"></path></svg>